<svg xmlns="http://www.w3.org/2000/svg" xml:space="preserve" viewBox="0 0 512 512">
    <path fill="#fff" d="M161.13 4.86v345.96H504L356.29 499.36H10.55V145.7z"/>
    <path fill="#e0e0e0" d="M152.63 10.58h348.8v348.8h-348.8z"/>
    <path fill="#555" d="M152.63 55.01a10.58 10.58 0 0 1-10.58-10.58V10.58a10.58 10.58 0 1 1 21.16 0v33.85c0 5.84-4.74 10.58-10.58 10.58zm0 230.23a10.58 10.58 0 0 1-10.58-10.58v-64.25a10.58 10.58 0 1 1 21.16 0v64.25c0 5.84-4.74 10.58-10.58 10.58zm0-115.11a10.58 10.58 0 0 1-10.58-10.58V95.3a10.58 10.58 0 1 1 21.16 0v64.25c0 5.84-4.74 10.58-10.58 10.58zm33.85 199.82h-33.85a10.58 10.58 0 0 1-10.58-10.58v-33.85a10.58 10.58 0 1 1 21.16 0v23.27h23.27a10.58 10.58 0 1 1 0 21.16zm230.22 0h-64.25a10.58 10.58 0 1 1 0-21.16h64.25a10.58 10.58 0 1 1 0 21.16zm-115.11 0h-64.25a10.58 10.58 0 1 1 0-21.16h64.25a10.58 10.58 0 1 1 0 21.16zm199.83 0h-33.85a10.58 10.58 0 1 1 0-21.16h33.85a10.58 10.58 0 1 1 0 21.16zM10.58 512a10.55 10.55 0 0 1-7.48-3.1 10.58 10.58 0 0 1 0-14.96L27.04 470A10.58 10.58 0 0 1 42 484.96L18.06 508.9a10.55 10.55 0 0 1-7.48 3.1zm72.33-72.33a10.55 10.55 0 0 1-7.48-3.1 10.58 10.58 0 0 1 0-14.96l23.93-23.94a10.58 10.58 0 0 1 14.97 14.96l-23.94 23.94a10.55 10.55 0 0 1-7.48 3.1z"/>
    <path fill="#1a1a1a" d="M501.42 0H152.63a10.58 10.58 0 0 0-7.48 3.1L3.1 145.15a10.55 10.55 0 0 0-3.1 7.48v348.8C0 507.25 4.74 512 10.58 512h348.79a10.55 10.55 0 0 0 7.48-3.1L508.9 366.85a10.58 10.58 0 0 0 3.1-7.48V10.58C512 4.74 507.26 0 501.42 0zM157.01 21.16h318.87L354.99 142.05H36.12zm191.78 469.68H21.15V163.2h327.63v327.63zm21.16-14.96V157L490.84 36.1V355z"/>
</svg>