<svg xmlns="http://www.w3.org/2000/svg" width="512" height="512"><svg xmlns="http://www.w3.org/2000/svg" viewBox="0 0 512 512"><g id="SvgjsG1000"><circle cx="256" cy="256" r="234.667" style="fill:#84d89c"/><ellipse cx="192" cy="192" rx="147.716" ry="104.607" transform="rotate(-45 192 192)" style="fill:#b7e8c4"/><circle cx="234.667" cy="192" r="42.667" style="fill:#eff2ff"/><path d="M74.667 234.667A10.66 10.66 0 0 1 64 224a32.035 32.035 0 0 1 32-32 10.68 10.68 0 0 0 10.667-10.667 32.035 32.035 0 0 1 32-32 10.68 10.68 0 0 0 10.666-10.666 32.035 32.035 0 0 1 32-32 10.667 10.667 0 1 1 0 21.333 10.68 10.68 0 0 0-10.666 10.667 32.035 32.035 0 0 1-32 32A10.68 10.68 0 0 0 128 181.333a32.035 32.035 0 0 1-32 32A10.68 10.68 0 0 0 85.333 224a10.66 10.66 0 0 1-10.666 10.667Z" style="fill:#14a142"/><path d="M298.667 448a10.667 10.667 0 1 1 0-21.333A10.68 10.68 0 0 0 309.333 416a32.035 32.035 0 0 1 32-32 10.667 10.667 0 1 1 0 21.333A10.68 10.68 0 0 0 330.667 416a32.035 32.035 0 0 1-32 32Z" style="fill:#ffea21"/><rect x="309.762" y="50.568" width="84.476" height="176.198" rx="42.238" ry="42.238" transform="rotate(-45 352 138.667)" style="fill:#ffd80c"/><circle cx="405.333" cy="320" r="42.667" style="fill:#14a142"/><circle cx="181.333" cy="352" r="74.667" style="fill:#ffd80c"/><ellipse cx="170.667" cy="341.333" rx="52.51" ry="29.704" transform="rotate(-45 170.667 341.333)" style="fill:#ffec6c"/><path d="M181.333 320a10.66 10.66 0 0 1-10.666-10.667v-42.666a10.667 10.667 0 1 1 21.333 0v42.666A10.66 10.66 0 0 1 181.333 320ZM181.333 448a10.66 10.66 0 0 1-10.666-10.667v-42.666a10.667 10.667 0 1 1 21.333 0v42.666A10.66 10.66 0 0 1 181.333 448ZM138.667 362.667H96a10.667 10.667 0 1 1 0-21.334h42.667a10.667 10.667 0 0 1 0 21.334ZM266.667 362.667H224a10.667 10.667 0 0 1 0-21.334h42.667a10.667 10.667 0 0 1 0 21.334ZM211.5 332.5a10.667 10.667 0 0 1-7.542-18.208l30.167-30.177a10.666 10.666 0 0 1 15.083 15.083l-30.166 30.177a10.632 10.632 0 0 1-7.542 3.125ZM121 423.01a10.667 10.667 0 0 1-7.542-18.208l30.167-30.177a10.666 10.666 0 1 1 15.083 15.083l-30.166 30.177A10.632 10.632 0 0 1 121 423.01ZM151.167 332.5a10.632 10.632 0 0 1-7.542-3.125l-30.167-30.177a10.666 10.666 0 1 1 15.084-15.083l30.166 30.177a10.667 10.667 0 0 1-7.541 18.208ZM241.667 423.01a10.632 10.632 0 0 1-7.542-3.125l-30.167-30.177a10.666 10.666 0 1 1 15.084-15.083l30.166 30.177a10.667 10.667 0 0 1-7.541 18.208Z" style="fill:#14a142"/><circle cx="330.667" cy="117.333" r="32" style="fill:#ffec6c"/><circle cx="384" cy="320" r="21.333" style="fill:#4cc66e"/></g></svg><style>@media (prefers-color-scheme:light){:root{filter:none}}</style></svg>